# XSI Wavefront OBJ Export v3.0
# File Created: Tue Nov 10 12:08:58 2015
# XSI Version: 13.0.114.0
mtllib 3D_Mülleimer_001.mtl

o cylinder
# Hierarchy (from self to top father)
g cylinder

#begin 50 vertices
v 0.000000 -0.002207 0.000000
v -0.000000 0.211545 -0.000000
v 0.348325 0.999969 0.000000
v -0.256471 -0.002207 -0.000000
v 0.000000 -0.002207 -0.256471
v -0.348325 0.999969 -0.000000
v 0.256471 -0.002207 0.000000
v 0.181352 -0.002207 -0.181352
v -0.181352 -0.002207 0.181352
v -0.246303 0.999969 -0.246303
v -0.246303 0.999969 0.246303
v 0.246303 0.999969 -0.246303
v 0.246303 0.999969 0.246303
v -0.000000 -0.002207 0.256471
v -0.181352 -0.002207 -0.181352
v -0.000000 0.999969 0.348325
v 0.000000 0.999969 -0.348325
v 0.181352 -0.002207 0.181352
v -0.262740 0.984714 -0.262740
v 0.000000 0.984714 -0.371570
v 0.262740 0.984714 -0.262740
v 0.371570 0.984714 0.000000
v 0.262740 0.984714 0.262740
v -0.000000 0.984714 0.371570
v -0.371570 0.984714 -0.000000
v -0.262740 0.984714 0.262740
v 0.148652 0.211545 -0.148652
v 0.210226 0.211545 0.000000
v 0.000000 0.211545 -0.210226
v 0.148652 0.211545 0.148652
v -0.148652 0.211545 -0.148652
v -0.000000 0.211545 0.210226
v -0.210226 0.211545 -0.000000
v -0.148652 0.211545 0.148652
v -0.278237 1.004561 -0.278237
v 0.000000 1.004561 -0.393487
v 0.278237 1.004561 -0.278237
v 0.393487 1.004561 0.000000
v 0.278237 1.004561 0.278237
v -0.000000 1.004561 0.393487
v -0.278237 1.004561 0.278237
v -0.393487 1.004561 -0.000000
v -0.262270 1.021345 -0.262270
v 0.000000 1.021345 -0.370906
v 0.262270 1.021345 -0.262270
v 0.370906 1.021345 0.000000
v 0.262270 1.021345 0.262270
v -0.000000 1.021345 0.370906
v -0.262270 1.021345 0.262270
v -0.370906 1.021345 -0.000000
#end 50 vertices

#begin 208 normals
vn 0.000000 -1.000000 0.000000
vn 0.000000 -1.000000 0.000000
vn 0.000000 -1.000000 0.000000
vn 0.000000 -1.000000 0.000000
vn 0.000000 -1.000000 0.000000
vn 0.000000 -1.000000 0.000000
vn 0.000000 -1.000000 0.000000
vn -0.993268 -0.115839 0.000000
vn -0.702347 -0.115839 -0.702347
vn 0.620750 0.478893 0.620750
vn 0.877873 0.478893 0.000000
vn 0.000000 0.478893 0.877873
vn 0.620750 0.478893 0.620750
vn -0.702347 -0.115839 -0.702347
vn 0.000000 -0.115839 -0.993268
vn 0.000000 1.000000 0.000000
vn 0.000000 0.478893 0.877873
vn -0.620750 0.478893 0.620750
vn 0.000000 1.000000 0.000000
vn -0.620750 0.478893 0.620750
vn -0.877873 0.478893 0.000000
vn 0.000000 1.000000 0.000000
vn 0.000000 -1.000000 0.000000
vn 0.000000 -1.000000 0.000000
vn 0.000000 -1.000000 0.000000
vn 0.000000 -1.000000 0.000000
vn 0.000000 -1.000000 0.000000
vn 0.000000 -1.000000 0.000000
vn 0.000000 -1.000000 0.000000
vn -0.620750 0.478893 0.620750
vn 0.000000 0.478893 0.877873
vn 0.000000 -0.115839 -0.993268
vn 0.702347 -0.115839 -0.702347
vn -0.877873 0.478893 0.000000
vn -0.620750 0.478893 0.620750
vn 0.702347 -0.115839 -0.702347
vn 0.993268 -0.115839 0.000000
vn -0.877873 0.478893 0.000000
vn -0.620750 0.478893 -0.620750
vn 0.620750 0.478893 0.620750
vn 0.000000 0.478893 0.877873
vn 0.000000 1.000000 0.000000
vn 0.000000 1.000000 0.000000
vn -0.620750 0.478893 -0.620750
vn 0.000000 -1.000000 0.000000
vn 0.000000 -1.000000 0.000000
vn 0.000000 -1.000000 0.000000
vn 0.000000 -1.000000 0.000000
vn 0.000000 -1.000000 0.000000
vn 0.000000 -1.000000 0.000000
vn 0.000000 -1.000000 0.000000
vn -0.620750 0.478893 -0.620750
vn -0.877873 0.478893 0.000000
vn 0.993268 -0.115839 0.000000
vn 0.702347 -0.115839 0.702347
vn 0.000000 0.478893 -0.877873
vn -0.620750 0.478893 -0.620750
vn 0.702347 -0.115839 0.702347
vn 0.000000 -0.115839 0.993268
vn 0.000000 0.478893 -0.877873
vn 0.877873 0.478893 0.000000
vn 0.620750 0.478893 0.620750
vn 0.000000 1.000000 0.000000
vn 0.000000 1.000000 0.000000
vn 0.000000 0.478893 -0.877873
vn 0.620750 0.478893 -0.620750
vn 0.000000 -1.000000 0.000000
vn 0.000000 -1.000000 0.000000
vn 0.000000 -1.000000 0.000000
vn 0.620750 0.478893 -0.620750
vn 0.000000 1.000000 0.000000
vn 0.877873 0.478893 0.000000
vn -0.702347 -0.115839 0.702347
vn 0.620750 0.478893 -0.620750
vn 0.000000 0.478893 -0.877873
vn 0.000000 -0.115839 0.993268
vn -0.702347 -0.115839 0.702347
vn -0.993268 -0.115839 0.000000
vn 0.877873 0.478893 0.000000
vn 0.620750 0.478893 -0.620750
vn -0.626148 -0.464627 -0.626148
vn -0.626148 -0.464627 -0.626148
vn 0.000000 -0.464627 -0.885506
vn 0.000000 -0.464627 -0.885506
vn 0.626148 -0.464627 -0.626148
vn 0.626148 -0.464627 -0.626148
vn 0.885506 -0.464627 0.000000
vn 0.885506 -0.464627 0.000000
vn 0.626148 -0.464627 0.626148
vn 0.626148 -0.464627 0.626148
vn 0.000000 -0.464627 0.885506
vn 0.000000 -0.464627 0.885506
vn -0.885506 -0.464627 0.000000
vn -0.885506 -0.464627 0.000000
vn -0.626148 -0.464627 0.626148
vn -0.626148 -0.464627 0.626148
vn -0.626148 -0.464627 -0.626148
vn -0.885506 -0.464627 0.000000
vn -0.626148 -0.464627 -0.626148
vn 0.000000 -0.464627 -0.885506
vn 0.000000 -0.464627 -0.885506
vn 0.626148 -0.464627 -0.626148
vn 0.626148 -0.464627 -0.626148
vn 0.885506 -0.464627 0.000000
vn 0.885506 -0.464627 0.000000
vn 0.626148 -0.464627 0.626148
vn 0.626148 -0.464627 0.626148
vn 0.000000 -0.464627 0.885506
vn 0.000000 -0.464627 0.885506
vn -0.626148 -0.464627 0.626148
vn -0.626148 -0.464627 0.626148
vn -0.885506 -0.464627 0.000000
vn -0.696503 0.172532 0.696503
vn -0.696503 0.172532 0.696503
vn -0.985004 0.172532 0.000000
vn -0.985004 0.172532 0.000000
vn 0.000000 0.172532 0.985004
vn 0.000000 1.000000 0.000000
vn -0.696503 0.172532 -0.696503
vn -0.696503 0.172532 -0.696503
vn 0.000000 1.000000 0.000000
vn 0.000000 1.000000 0.000000
vn 0.000000 0.172532 -0.985004
vn 0.000000 0.172532 -0.985004
vn 0.000000 1.000000 0.000000
vn 0.985004 0.172532 0.000000
vn 0.696503 0.172532 -0.696503
vn 0.696503 0.172532 -0.696503
vn 0.000000 1.000000 0.000000
vn 0.000000 1.000000 0.000000
vn 0.000000 1.000000 0.000000
vn 0.000000 1.000000 0.000000
vn 0.000000 1.000000 0.000000
vn 0.000000 1.000000 0.000000
vn 0.000000 0.172532 0.985004
vn 0.696503 0.172532 0.696503
vn 0.000000 1.000000 0.000000
vn 0.000000 1.000000 0.000000
vn 0.696503 0.172532 0.696503
vn 0.985004 0.172532 0.000000
vn 0.000000 1.000000 0.000000
vn 0.000000 1.000000 0.000000
vn 0.000000 1.000000 0.000000
vn 0.000000 1.000000 0.000000
vn -0.421823 0.802577 -0.421823
vn -0.421823 0.802577 -0.421823
vn 0.000000 0.802577 -0.596548
vn 0.000000 0.802577 -0.596548
vn 0.421823 0.802577 -0.421823
vn 0.421823 0.802577 -0.421823
vn 0.596548 0.802577 0.000000
vn 0.596548 0.802577 0.000000
vn 0.421823 0.802577 0.421823
vn 0.421823 0.802577 0.421823
vn 0.000000 0.802577 0.596548
vn 0.000000 0.802577 0.596548
vn -0.421823 0.802577 0.421823
vn -0.421823 0.802577 0.421823
vn -0.596548 0.802577 0.000000
vn -0.596548 0.802577 0.000000
vn -0.474626 -0.741255 -0.474626
vn -0.671223 -0.741255 0.000000
vn 0.000000 -0.741255 -0.671223
vn -0.474626 -0.741255 -0.474626
vn 0.474626 -0.741255 -0.474626
vn 0.000000 -0.741255 -0.671223
vn 0.671223 -0.741255 0.000000
vn 0.474626 -0.741255 -0.474626
vn 0.474626 -0.741255 0.474626
vn 0.671223 -0.741255 0.000000
vn 0.000000 -0.741255 0.671223
vn 0.474626 -0.741255 0.474626
vn -0.474626 -0.741255 0.474626
vn 0.000000 -0.741255 0.671223
vn -0.671223 -0.741255 0.000000
vn -0.474626 -0.741255 0.474626
vn 0.486110 0.726219 0.486110
vn 0.486110 0.726219 0.486110
vn 0.000000 0.726219 0.687463
vn 0.000000 0.726219 0.687463
vn -0.486110 0.726219 0.486110
vn -0.486110 0.726219 0.486110
vn -0.687463 0.726219 0.000000
vn -0.687463 0.726219 0.000000
vn -0.486110 0.726219 -0.486110
vn -0.486110 0.726219 -0.486110
vn 0.000000 0.726219 -0.687463
vn 0.000000 0.726219 -0.687463
vn 0.486110 0.726219 -0.486110
vn 0.486110 0.726219 -0.486110
vn 0.687463 0.726219 0.000000
vn 0.687463 0.726219 0.000000
vn -0.421823 0.802577 -0.421823
vn -0.596548 0.802577 0.000000
vn 0.000000 0.802577 -0.596548
vn -0.421823 0.802577 -0.421823
vn 0.421823 0.802577 -0.421823
vn 0.000000 0.802577 -0.596548
vn 0.596548 0.802577 0.000000
vn 0.421823 0.802577 -0.421823
vn 0.421823 0.802577 0.421823
vn 0.596548 0.802577 0.000000
vn 0.000000 0.802577 0.596548
vn 0.421823 0.802577 0.421823
vn -0.421823 0.802577 0.421823
vn 0.000000 0.802577 0.596548
vn -0.596548 0.802577 0.000000
vn -0.421823 0.802577 0.421823
#end 208 vertex normals

#begin texture vertices
vt 0.117663 0.868789 0.000000
vt 0.221878 0.703463 0.000000
vt 0.508119 0.974256 0.000000
vt 0.687218 0.073753 0.000000
vt 0.167255 0.958026 0.000000
vt 0.701646 0.588851 0.000000
vt 0.028427 0.918381 0.000000
vt 0.238186 0.588851 0.000000
vt 0.269611 0.115825 0.000000
vt 0.899448 0.922240 0.000000
vt 0.391856 0.561303 0.000000
vt 0.068071 0.779553 0.000000
vt 0.019497 0.840756 0.000000
vt 0.314410 0.571667 0.000000
vt 0.625422 0.571667 0.000000
vt 0.215830 0.896822 0.000000
vt 0.946124 0.260761 0.000000
vt 0.181849 0.179356 0.000000
vt 0.988744 0.877719 0.000000
vt 0.226615 0.877719 0.000000
vt 0.805065 0.954607 0.000000
vt 0.368214 0.072273 0.000000
vt 0.410294 0.954607 0.000000
vt 0.785805 0.117429 0.000000
vt 0.607679 0.980843 0.000000
vt 0.581696 0.051169 0.000000
vt 0.547976 0.561303 0.000000
vt 0.206900 0.819197 0.000000
vt 0.776049 0.612717 0.000000
vt 0.163784 0.612717 0.000000
vt 0.089630 0.966956 0.000000
vt 0.707240 0.974256 0.000000
vt 0.473800 0.050587 0.000000
vt 0.873233 0.180567 0.000000
vt 0.315911 0.922240 0.000000
vt 0.469916 0.557840 0.000000
vt 0.145696 0.770623 0.000000
vt 0.974428 0.239693 0.000000
vt 0.026397 0.241830 0.000000
vt 0.913435 0.241830 0.000000
vt 0.158454 0.152939 0.000000
vt 0.896153 0.154809 0.000000
vt 0.134190 0.207252 0.000000
vt 0.802925 0.087545 0.000000
vt 0.244622 0.182357 0.000000
vt 0.697764 0.040834 0.000000
vt 0.356825 0.167342 0.000000
vt 0.585396 0.016710 0.000000
vt 0.469916 0.162324 0.000000
vt 0.470449 0.016184 0.000000
vt 0.583008 0.167342 0.000000
vt 0.805643 0.207252 0.000000
vt 0.252503 0.085891 0.000000
vt 0.357757 0.039560 0.000000
vt 0.695211 0.182357 0.000000
vt 0.281051 0.762636 0.000000
vt 0.488550 0.665434 0.000000
vt 0.305561 0.703463 0.000000
vt 0.547591 0.677293 0.000000
vt 0.431587 0.645899 0.000000
vt 0.221878 0.787145 0.000000
vt 0.281051 0.644291 0.000000
vt 0.607679 0.681269 0.000000
vt 0.377694 0.619029 0.000000
vt 0.837665 0.619029 0.000000
vt 0.162706 0.762636 0.000000
vt 0.221878 0.619781 0.000000
vt 0.667768 0.677293 0.000000
vt 0.783772 0.645899 0.000000
vt 0.138196 0.703463 0.000000
vt 0.162706 0.644291 0.000000
vt 0.726808 0.665434 0.000000
vt 0.968035 0.250169 0.000000
vt 0.162567 0.164502 0.000000
vt 0.888667 0.163134 0.000000
vt 0.797468 0.097044 0.000000
vt 0.694348 0.051487 0.000000
vt 0.584165 0.028055 0.000000
vt 0.471514 0.027317 0.000000
vt 0.361091 0.049988 0.000000
vt 0.258103 0.095579 0.000000
vt 0.957508 0.255149 0.000000
vt 0.171852 0.171531 0.000000
vt 0.881469 0.171309 0.000000
vt 0.791909 0.106714 0.000000
vt 0.690980 0.062009 0.000000
vt 0.583014 0.039036 0.000000
vt 0.472637 0.038308 0.000000
vt 0.364500 0.060506 0.000000
vt 0.263462 0.105067 0.000000
#end 90 texture vertices

#begin 56 faces
usemtl scene_material
f 1/1/3 8/13/2 7/12/1 
usemtl scene_material
f 8/13/6 1/1/5 5/7/4 
usemtl scene_material
f 6/9/11 10/18/10 43/83/177 50/90/191 
usemtl scene_material
f 5/8/15 15/30/14 19/39/82 20/43/83 
usemtl scene_material
f 12/23/18 17/35/17 29/60/117 27/57/113 
usemtl scene_material
f 3/3/21 12/23/20 27/57/114 28/59/115 
usemtl scene_material
f 4/5/24 15/31/23 1/1/7 
usemtl scene_material
f 1/1/27 7/12/26 18/37/25 
usemtl scene_material
f 8/14/33 5/8/32 20/43/84 21/45/85 
usemtl scene_material
f 7/11/37 8/14/36 21/45/86 22/47/87 
usemtl scene_material
f 13/25/39 3/3/38 28/59/116 30/63/119 
usemtl scene_material
f 2/2/42 29/61/118 31/66/121 
usemtl scene_material
f 15/31/45 5/7/29 1/1/28 
usemtl scene_material
f 1/1/48 18/37/47 14/28/46 
usemtl scene_material
f 18/36/55 7/11/54 22/47/88 23/49/89 
usemtl scene_material
f 14/27/59 18/36/58 23/49/90 24/51/91 
usemtl scene_material
f 16/32/60 13/25/44 30/63/120 32/68/123 
usemtl scene_material
f 2/2/63 31/66/122 33/70/125 
usemtl scene_material
f 1/1/51 14/28/50 9/16/49 
usemtl scene_material
f 1/1/69 9/16/68 4/5/67 
usemtl scene_material
f 9/15/77 14/27/76 24/51/92 26/55/95 
usemtl scene_material
f 9/15/73 26/55/96 25/52/94 4/6/78 
usemtl scene_material
f 11/21/66 16/32/65 32/68/124 34/72/127 
usemtl scene_material
f 11/21/70 34/72/128 33/69/126 6/10/72 
usemtl scene_material
f 15/29/9 4/6/8 25/52/98 19/40/97 
usemtl scene_material
f 10/17/13 17/34/12 44/84/179 43/82/178 
usemtl scene_material
f 17/34/31 12/24/30 45/85/181 44/84/180 
usemtl scene_material
f 12/24/35 3/4/34 46/86/183 45/85/182 
usemtl scene_material
f 3/4/53 13/26/52 47/87/185 46/86/184 
usemtl scene_material
f 13/26/57 16/33/56 48/88/187 47/87/186 
usemtl scene_material
f 16/33/75 11/22/74 49/89/189 48/88/188 
usemtl scene_material
f 11/22/80 6/9/79 50/90/192 49/89/190 
usemtl scene_material
f 2/2/16 27/56/130 29/61/129 
usemtl scene_material
f 2/2/19 28/58/132 27/56/131 
usemtl scene_material
f 2/2/22 30/62/134 28/58/133 
usemtl scene_material
f 17/35/41 10/20/40 31/64/136 29/60/135 
usemtl scene_material
f 2/2/43 32/67/138 30/62/137 
usemtl scene_material
f 10/19/62 6/10/61 33/69/140 31/65/139 
usemtl scene_material
f 2/2/64 34/71/142 32/67/141 
usemtl scene_material
f 2/2/71 33/70/144 34/71/143 
usemtl scene_material
f 19/41/81 25/53/93 42/81/162 35/74/161 
usemtl scene_material
f 20/42/100 19/38/99 35/73/164 36/75/163 
usemtl scene_material
f 21/44/102 20/42/101 36/75/166 37/76/165 
usemtl scene_material
f 22/46/104 21/44/103 37/76/168 38/77/167 
usemtl scene_material
f 23/48/106 22/46/105 38/77/170 39/78/169 
usemtl scene_material
f 24/50/108 23/48/107 39/78/172 40/79/171 
usemtl scene_material
f 26/54/110 24/50/109 40/79/174 41/80/173 
usemtl scene_material
f 25/53/112 26/54/111 41/80/176 42/81/175 
usemtl scene_material
f 35/74/145 42/81/159 50/90/194 43/83/193 
usemtl scene_material
f 36/75/147 35/73/146 43/82/196 44/84/195 
usemtl scene_material
f 37/76/149 36/75/148 44/84/198 45/85/197 
usemtl scene_material
f 38/77/151 37/76/150 45/85/200 46/86/199 
usemtl scene_material
f 39/78/153 38/77/152 46/86/202 47/87/201 
usemtl scene_material
f 40/79/155 39/78/154 47/87/204 48/88/203 
usemtl scene_material
f 41/80/157 40/79/156 48/88/206 49/89/205 
usemtl scene_material
f 42/81/160 41/80/158 49/89/208 50/90/207 
#end 56 faces
